<svg xmlns="http://www.w3.org/2000/svg" width="99" height="15" viewBox="0 0 99 15"><defs><style>.a{fill:#fbe669;}.b{fill:#e5e5e5;}</style></defs><title>Untitled-1</title><path class="a" d="M149.5,84.96a2.23741,2.23741,0,0,1-1.36056,2.06031,2.22035,2.22035,0,0,1-2.4423-.4792,2.23964,2.23964,0,0,1,.70809-3.64142,2.22035,2.22035,0,0,1,2.4423.4792A2.23323,2.23323,0,0,1,149.5,84.96Z" transform="translate(-50.5 -72.5)"/><path class="b" d="M61.22651,76.54333l-1.41326.39851L58.4,77.34035a1.9263,1.9263,0,0,0-.21378-.63225,2.53383,2.53383,0,0,0-.44285-.58257,1.74652,1.74652,0,0,0-.70145-.41861,3.1625,3.1625,0,0,0-.99-.13966,2.52293,2.52293,0,0,0-.77626.11227,1.83156,1.83156,0,0,0-.617.3361,1.56226,1.56226,0,0,0-.40286.49076,1.25807,1.25807,0,0,0-.13452.57484,1.18081,1.18081,0,0,0,.3484.88664,1.989,1.989,0,0,0,1.04486.46793l.94532.17942.94532.17942a6.36349,6.36349,0,0,1,1.72885.5601,4.42225,4.42225,0,0,1,1.286.96407,4.061,4.061,0,0,1,.79843,1.26213,4.11242,4.11242,0,0,1-.0869,3.12248,4.66618,4.66618,0,0,1-1.05985,1.45147,4.59354,4.59354,0,0,1-1.65668,1.00883A6.40129,6.40129,0,0,1,56.27084,87.5a7.431,7.431,0,0,1-2.36586-.34619,4.69642,4.69642,0,0,1-1.76375-1.03895,5.63637,5.63637,0,0,1-1.14157-1.476A4.54822,4.54822,0,0,1,50.5,82.97773l1.44271-.34865,1.44271-.34865a2.85577,2.85577,0,0,0,.256.96388,2.59629,2.59629,0,0,0,.5701.77937,2.31918,2.31918,0,0,0,.8877.51524,3.8955,3.8955,0,0,0,1.21165.17187,3.03556,3.03556,0,0,0,.82079-.10208,1.86979,1.86979,0,0,0,.6321-.30625,1.36591,1.36591,0,0,0,.40285-.47057,1.30192,1.30192,0,0,0,.13453-.595,1.21741,1.21741,0,0,0-.09971-.49568,1.23513,1.23513,0,0,0-.29878-.41052,1.78347,1.78347,0,0,0-.47766-.31135,2.85257,2.85257,0,0,0-.63637-.19671l-.96532-.17942-.96532-.17942a5.82564,5.82564,0,0,1-1.5995-.5328,4.33235,4.33235,0,0,1-1.21611-.92149,3.81393,3.81393,0,0,1-.769-1.22974,4.062,4.062,0,0,1-.25633-1.459,4.229,4.229,0,0,1,.37313-1.78784,4.315,4.315,0,0,1,1.11975-1.4592,5.18654,5.18654,0,0,1,1.63659-.97116,5.59286,5.59286,0,0,1,1.9251-.32372,7.70965,7.70965,0,0,1,1.18684.08725,5.85259,5.85259,0,0,1,1.05212.2614,4.98374,4.98374,0,0,1,.88306.406,3.434,3.434,0,0,1,.67963.52061,5.72555,5.72555,0,0,1,.51484.58748,4.51656,4.51656,0,0,1,.39049.60769,4.41837,4.41837,0,0,1,.27606.63206A4.33782,4.33782,0,0,1,61.22651,76.54333Z" transform="translate(-50.5 -72.5)"/><path class="b" d="M71.77341,77.30032l-1.88047,4.95026-1.88046,4.95026H64.96781l-2.0299-4.95026L60.908,77.30032h3.28318l1.14457,3.07781,1.14457,3.07781,1.0544-3.07781,1.05439-3.07781h3.18429Z" transform="translate(-50.5 -72.5)"/><path class="b" d="M78.48012,83.635l1.26382.35847,1.26382.35848a4.06887,4.06887,0,0,1-.58237,1.25276,4.353,4.353,0,0,1-.98977,1.00874,4.28493,4.28493,0,0,1-1.34336.66464A5.74554,5.74554,0,0,1,76.45058,87.5a5.38949,5.38949,0,0,1-1.98791-.35866,5.09271,5.09271,0,0,1-1.66395-1.076,4.61948,4.61948,0,0,1-1.1273-1.67829,5.90913,5.90913,0,0,1-.37576-2.16633,5.74351,5.74351,0,0,1,.36586-2.09627,4.76555,4.76555,0,0,1,1.09721-1.66829,5.00922,5.00922,0,0,1,1.59932-1.09072,4.80059,4.80059,0,0,1,1.87365-.36357,5.90923,5.90923,0,0,1,2.06171.33619,4.24162,4.24162,0,0,1,1.56979,1.00819,4.31,4.31,0,0,1,.99249,1.60624,6.35378,6.35378,0,0,1,.331,2.12921q0,.3783-.01482.61241a1.46638,1.46638,0,0,1-.04481.32363H74.24143a1.82042,1.82042,0,0,0,.194.74953,1.96918,1.96918,0,0,0,.50266.61523,2.30932,2.30932,0,0,0,.71617.4107,2.49557,2.49557,0,0,0,.83562.13666,2.27494,2.27494,0,0,0,1.26373-.32372A1.84717,1.84717,0,0,0,78.48012,83.635Zm-4.17906-2.56939h3.96018a1.795,1.795,0,0,0-.1518-.63253,1.86376,1.86376,0,0,0-.3754-.543,1.52873,1.52873,0,0,0-.60992-.3734,2.64911,2.64911,0,0,0-.85315-.12446,2.24169,2.24169,0,0,0-.786.12947,1.66628,1.66628,0,0,0-.60656.38877,2.10889,2.10889,0,0,0-.40321.54754A1.70612,1.70612,0,0,0,74.30106,81.06561Z" transform="translate(-50.5 -72.5)"/><path class="b" d="M85.76347,74.41212v2.8882h1.93064v2.64946H85.76347v3.7056a1.0205,1.0205,0,0,0,.27378.77664,1.15528,1.15528,0,0,0,.82134.25912,3.039,3.039,0,0,0,.37785-.025q.19893-.025.41767-.0747v2.50971a2.46958,2.46958,0,0,1-.67154.209,5.19494,5.19494,0,0,1-.9006.06978,4.0915,4.0915,0,0,1-1.37063-.214,2.85985,2.85985,0,0,1-1.04722-.642,2.74749,2.74749,0,0,1-.66427-1.0111,3.69367,3.69367,0,0,1-.22142-1.31955V79.94978h-1.751V77.30032h.49738a1.81651,1.81651,0,0,0,.66418-.11191,1.20687,1.20687,0,0,0,.48039-.33573,1.50766,1.50766,0,0,0,.29123-.51579,2.047,2.047,0,0,0,.09708-.64954V74.41212h2.70581Z" transform="translate(-50.5 -72.5)"/><path class="b" d="M88.31075,84.392l1.28346-.22891,1.28346-.22892a1.494,1.494,0,0,0,.1268.51543,1.46272,1.46272,0,0,0,.30077.43081,1.22874,1.22874,0,0,0,.47521.29087,1.98911,1.98911,0,0,0,.64973.09708,1.77018,1.77018,0,0,0,.4922-.062.98192.98192,0,0,0,.36295-.187.8495.8495,0,0,0,.22415-.27623.73866.73866,0,0,0,.07472-.33082.63232.63232,0,0,0-.24378-.50341,1.72981,1.72981,0,0,0-.73136-.314l-.56719-.12919-.5672-.1292a5.36175,5.36175,0,0,1-1.31345-.441,3.03905,3.03905,0,0,1-.91533-.685,2.78635,2.78635,0,0,1-.53729-.88327,3.10853,3.10853,0,0,1,.09181-2.30845,3.22675,3.22675,0,0,1,.81343-1.06051,3.67415,3.67415,0,0,1,1.22147-.71732,4.47677,4.47677,0,0,1,1.49525-.23911,5.55759,5.55759,0,0,1,1.68885.23147,3.05611,3.05611,0,0,1,1.20674.69439,3.82965,3.82965,0,0,1,.74826.969,2.78812,2.78812,0,0,1,.31632,1.053l-1.25364.22928-1.25365.22928a1.55721,1.55721,0,0,0-.132-.48813,1.3067,1.3067,0,0,0-.276-.38823,1.11332,1.11332,0,0,0-.42558-.25421,1.80774,1.80774,0,0,0-.57937-.085,1.34556,1.34556,0,0,0-.4084.06,1.153,1.153,0,0,0-.34786.17951.80244.80244,0,0,0-.23915.27395.73868.73868,0,0,0-.07935.34329.636.636,0,0,0,.19379.483,1.11527,1.11527,0,0,0,.5821.2543l.65664.1292.65663.1292a5.22,5.22,0,0,1,1.31382.43344,3.29928,3.29928,0,0,1,.955.702,2.80459,2.80459,0,0,1,.77589,1.97253,3.14684,3.14684,0,0,1-.2586,1.27742,3.39283,3.39283,0,0,1-2.02008,1.82268A5.15722,5.15722,0,0,1,92.48981,87.5a6.35824,6.35824,0,0,1-1.03259-.08,4.79339,4.79339,0,0,1-.90824-.23883,4.00484,4.00484,0,0,1-.746-.36621,2.56087,2.56087,0,0,1-.54693-.46065,4.89205,4.89205,0,0,1-.39331-.50542,3.57879,3.57879,0,0,1-.28368-.5005,3.30611,3.30611,0,0,1-.18161-.488A2.53259,2.53259,0,0,1,88.31075,84.392Z" transform="translate(-50.5 -72.5)"/><path class="b" d="M103.85332,83.635l1.26382.35847,1.26383.35848a4.06912,4.06912,0,0,1-.58238,1.25276,4.35281,4.35281,0,0,1-.98977,1.00874,4.28482,4.28482,0,0,1-1.34336.66464,5.74549,5.74549,0,0,1-1.64168.22191,5.38944,5.38944,0,0,1-1.9879-.35866,5.0925,5.0925,0,0,1-1.66395-1.076,4.61948,4.61948,0,0,1-1.1273-1.67829,5.90913,5.90913,0,0,1-.37577-2.16633,5.74372,5.74372,0,0,1,.36586-2.09627,4.76568,4.76568,0,0,1,1.09721-1.66829,5.00926,5.00926,0,0,1,1.59933-1.09072,4.80051,4.80051,0,0,1,1.87364-.36357,5.90932,5.90932,0,0,1,2.06172.33619,4.2415,4.2415,0,0,1,1.56978,1.00819,4.31016,4.31016,0,0,1,.9925,1.60624,6.354,6.354,0,0,1,.331,2.12921q0,.3783-.01481.61241a1.46621,1.46621,0,0,1-.04482.32363H99.61464a1.82011,1.82011,0,0,0,.194.74953,1.969,1.969,0,0,0,.50266.61523,2.30921,2.30921,0,0,0,.71617.4107,2.49551,2.49551,0,0,0,.83561.13666,2.27492,2.27492,0,0,0,1.26373-.32372A1.84712,1.84712,0,0,0,103.85332,83.635Zm-4.17906-2.56939h3.96018a1.79479,1.79479,0,0,0-.1518-.63253,1.86357,1.86357,0,0,0-.3754-.543,1.52876,1.52876,0,0,0-.60991-.3734,2.64918,2.64918,0,0,0-.85316-.12446,2.24173,2.24173,0,0,0-.786.12947,1.66624,1.66624,0,0,0-.60655.38877,2.1087,2.1087,0,0,0-.40322.54754A1.70612,1.70612,0,0,0,99.67426,81.06561Z" transform="translate(-50.5 -72.5)"/><path class="b" d="M113.80321,77.30032V80.289a3.43586,3.43586,0,0,0-.44776-.075,4.92057,4.92057,0,0,0-.50774-.02474,2.48893,2.48893,0,0,0-.92269.16431,2.12442,2.12442,0,0,0-.7389.493,2.06153,2.06153,0,0,0-.4853.83641,3.94908,3.94908,0,0,0-.16188,1.19508v4.32283h-3.02431V77.30032H110.44v1.33492a2.31063,2.31063,0,0,1,.45257-.65227,2.19265,2.19265,0,0,1,.64182-.44318,3.80017,3.80017,0,0,1,.73627-.25385,3.27724,3.27724,0,0,1,.73626-.08461,3.47827,3.47827,0,0,1,.42785.02466A2.3325,2.3325,0,0,1,113.80321,77.30032Z" transform="translate(-50.5 -72.5)"/><path class="b" d="M114.8976,75.528a1.71119,1.71119,0,0,1-.517-1.25485,1.77473,1.77473,0,0,1,.12925-.68238,1.845,1.845,0,0,1,.95514-.96134,1.70554,1.70554,0,0,1,.66663-.12938,1.74134,1.74134,0,0,1,1.26383.51752,1.74084,1.74084,0,0,1,0,2.51043,1.74134,1.74134,0,0,1-1.26383.51752,1.70554,1.70554,0,0,1-.66663-.12938A1.77062,1.77062,0,0,1,114.8976,75.528Zm2.76617,11.67289h-3.02431V77.30032h3.02431v9.90052Z" transform="translate(-50.5 -72.5)"/><path class="b" d="M118.71889,84.47205a3.00665,3.00665,0,0,1,.2037-1.1333,2.47722,2.47722,0,0,1,.61219-.88873,3.45831,3.45831,0,0,1,.93505-.62488,4.41482,4.41482,0,0,1,1.17447-.341l1.16421-.17942,1.1642-.17942a.956.956,0,0,0,.537-.219.601.601,0,0,0,.17925-.45865.91656.91656,0,0,0-.09708-.42034,1.05266,1.05266,0,0,0-.29123-.34611,1.31964,1.31964,0,0,0-.4603-.23155,2.1727,2.1727,0,0,0-.60428-.07707,2.01861,2.01861,0,0,0-.67927.107,1.45771,1.45771,0,0,0-.52492.321,1.6107,1.6107,0,0,0-.34559.47075,1.51,1.51,0,0,0-.14162.55483l-1.31363-.26859-1.31364-.26858a2.96033,2.96033,0,0,1,.35559-1.18316,4.14573,4.14573,0,0,1,.86824-1.07834,3.66225,3.66225,0,0,1,1.341-.76909,5.66065,5.66065,0,0,1,1.77348-.25649,6.34406,6.34406,0,0,1,1.953.269,3.31722,3.31722,0,0,1,1.36072.80676,3.54767,3.54767,0,0,1,.79843,1.22492,4.18658,4.18658,0,0,1,.26615,1.52353v4.84108q0,.46838.0299.8517a5.84784,5.84784,0,0,0,.08935.68192h-2.72616a3.17951,3.17951,0,0,1-.07463-.47821q-.02494-.279-.025-.63761a2.74155,2.74155,0,0,1-1.12429,1.04613,3.67556,3.67556,0,0,1-1.6615.34847,4.19874,4.19874,0,0,1-1.41062-.22164,3.08773,3.08773,0,0,1-1.78094-1.63808A2.84054,2.84054,0,0,1,118.71889,84.47205Zm4.1587.81667a2.11725,2.11725,0,0,0,.71172-.11464,1.7508,1.7508,0,0,0,.58192-.34392,1.393,1.393,0,0,0,.38812-.60713,2.812,2.812,0,0,0,.12962-.90684V82.878l-.9355.14958-.93551.14957a1.50215,1.50215,0,0,0-.8357.36349.98031.98031,0,0,0-.27833.732,1.03172,1.03172,0,0,0,.07208.3885,1.01306,1.01306,0,0,0,.21661.32846.89425.89425,0,0,0,.36531.22436A1.6258,1.6258,0,0,0,122.87759,85.28872Z" transform="translate(-50.5 -72.5)"/><path class="b" d="M132.21084,87.20084h-3.02431V72.77878h3.02431V87.20084Z" transform="translate(-50.5 -72.5)"/><path class="b" d="M140.25118,87.20084a3.09966,3.09966,0,0,1-.06018-.428q-.01991-.24894-.01981-.56775a2.0371,2.0371,0,0,1-.45258.52516,2.53943,2.53943,0,0,1-.64182.38105,3.92774,3.92774,0,0,1-.75635.23155,4.07647,4.07647,0,0,1-.79616.07706,4.17472,4.17472,0,0,1-1.56451-.27631,3.19887,3.19887,0,0,1-1.19147-.82932,3.7225,3.7225,0,0,1-.7539-1.2423,4.40262,4.40262,0,0,1-.251-1.51634V77.30032h3.025V82.918a2.18577,2.18577,0,0,0,.10172.68748,1.60848,1.60848,0,0,0,.30623.54772,1.26989,1.26989,0,0,0,.49947.35866,1.81779,1.81779,0,0,0,.68436.11955,1.85906,1.85906,0,0,0,.679-.11727,1.44422,1.44422,0,0,0,.5252-.35148,1.53569,1.53569,0,0,0,.33577-.5399,1.98211,1.98211,0,0,0,.11217-.68511V77.30032h3.0243v8.12743q0,.488.025.93131t.07463.84178h-2.905Z" transform="translate(-50.5 -72.5)"/></svg>